HIERARCHY
ROOT Hips
{
	OFFSET 0.000000 83.214638 0.000000
	CHANNELS 6 Xposition Yposition Zposition Xrotation Yrotation Zrotation
	JOINT Pelvis
	{
		OFFSET 0.000000 0.000000 0.000000
		CHANNELS 3 Xrotation Yrotation Zrotation
		JOINT LeftUpLeg
		{
			OFFSET 8.479700 -4.795502 -0.379100
			CHANNELS 3 Xrotation Yrotation Zrotation
			JOINT LeftLeg
			{
				OFFSET 0.024144 -32.555107 0.112900
				CHANNELS 3 Xrotation Yrotation Zrotation
				JOINT LeftFoot
				{
					OFFSET -0.024144 -32.638630 -3.012600
					CHANNELS 3 Xrotation Yrotation Zrotation
					JOINT LeftToeBase
					{
						OFFSET 0.970200 -13.225400 11.864200
						CHANNELS 3 Xrotation Yrotation Zrotation
						End Site
						{
							OFFSET 0.000000 12.319262 0.000000
						}
					}
					JOINT LFootTongue
					{
						OFFSET 1.142400 -1.059800 6.665200
						CHANNELS 3 Xrotation Yrotation Zrotation
						End Site
						{
							OFFSET 0.000000 12.319262 0.000000
						}
					}
				}
				JOINT LeftPantLeg
				{
					OFFSET 0.918482 -16.533964 -2.284700
					CHANNELS 3 Xrotation Yrotation Zrotation
					End Site
					{
						OFFSET 0.350399 24.744368 0.000000
					}
				}
			}
		}
		JOINT RightUpLeg
		{
			OFFSET -8.479700 -4.795502 -0.379100
			CHANNELS 3 Xrotation Yrotation Zrotation
			JOINT RightLeg
			{
				OFFSET -0.023144 -32.555092 0.112900
				CHANNELS 3 Xrotation Yrotation Zrotation
				JOINT RightFoot
				{
					OFFSET 0.023144 -32.638641 -3.012700
					CHANNELS 3 Xrotation Yrotation Zrotation
					JOINT RightToeBase
					{
						OFFSET -0.970200 -13.225400 11.864200
						CHANNELS 3 Xrotation Yrotation Zrotation
						End Site
						{
							OFFSET 0.000000 12.319244 0.000000
						}
					}
					JOINT RFootTongue
					{
						OFFSET -1.142200 -1.059800 6.665200
						CHANNELS 3 Xrotation Yrotation Zrotation
						End Site
						{
							OFFSET 0.000000 12.319243 0.000000
						}
					}
				}
				JOINT RightPantLeg
				{
					OFFSET -0.919482 -16.533978 -2.284800
					CHANNELS 3 Xrotation Yrotation Zrotation
					End Site
					{
						OFFSET -0.350400 24.744419 0.000000
					}
				}
			}
		}
	}
	JOINT Spine
	{
		OFFSET 0.000000 7.722000 1.166200
		CHANNELS 3 Xrotation Yrotation Zrotation
		JOINT Spine1
		{
			OFFSET 0.000000 12.024101 0.248800
			CHANNELS 3 Xrotation Yrotation Zrotation
			JOINT Spine2
			{
				OFFSET 0.000000 11.502998 -0.491200
				CHANNELS 3 Xrotation Yrotation Zrotation
				JOINT Neck
				{
					OFFSET 0.000000 18.430702 -3.123100
					CHANNELS 3 Xrotation Yrotation Zrotation
					JOINT Head
					{
						OFFSET 0.000000 9.051102 1.034000
						CHANNELS 3 Xrotation Yrotation Zrotation
						JOINT HairB
						{
							OFFSET 0.208400 24.786102 24.822300
							CHANNELS 3 Xrotation Yrotation Zrotation
							End Site
							{
								OFFSET 0.000000 32.263779 0.000000
							}
						}
						JOINT HairA
						{
							OFFSET -7.081100 24.428299 23.196600
							CHANNELS 3 Xrotation Yrotation Zrotation
							End Site
							{
								OFFSET 0.000000 32.263779 0.000000
							}
						}
						JOINT Hat
						{
							OFFSET 16.728800 15.048294 -15.439601
							CHANNELS 3 Xrotation Yrotation Zrotation
							End Site
							{
								OFFSET 0.000000 32.263779 0.000000
							}
						}
					}
				}
				JOINT LeftShoulder
				{
					OFFSET 6.197800 13.665199 -4.064700
					CHANNELS 3 Xrotation Yrotation Zrotation
					JOINT LeftArm
					{
						OFFSET 7.778100 -0.187103 -1.709300
						CHANNELS 3 Xrotation Yrotation Zrotation
						JOINT LeftForeArm
						{
							OFFSET 22.049376 0.000000 0.000000
							CHANNELS 3 Xrotation Yrotation Zrotation
							JOINT LeftHand
							{
								OFFSET 23.009392 0.000000 0.000000
								CHANNELS 3 Xrotation Yrotation Zrotation
								JOINT LeftHandThumb1
								{
									OFFSET 3.507191 -2.063065 3.133727
									CHANNELS 3 Xrotation Yrotation Zrotation
									JOINT LeftHandThumb2
									{
										OFFSET 3.101337 -1.790558 1.790558
										CHANNELS 3 Xrotation Yrotation Zrotation
										JOINT LeftHandThumb3
										{
											OFFSET 3.058640 -1.765907 1.765906
											CHANNELS 3 Xrotation Yrotation Zrotation
											End Site
											{
												OFFSET -0.415260 3.926476 -0.049563
											}
										}
									}
								}
								JOINT LeftHandIndex1
								{
									OFFSET 11.334419 -0.901459 3.706815
									CHANNELS 3 Xrotation Yrotation Zrotation
									JOINT LeftHandIndex2
									{
										OFFSET 3.283112 0.000000 0.000000
										CHANNELS 3 Xrotation Yrotation Zrotation
										JOINT LeftHandIndex3
										{
											OFFSET 3.323853 0.000000 0.000000
											CHANNELS 3 Xrotation Yrotation Zrotation
											End Site
											{
												OFFSET -1.135597 3.097809 0.402452
											}
										}
									}
								}
								JOINT LeftHandMiddle1
								{
									OFFSET 11.335861 0.000000 0.000000
									CHANNELS 3 Xrotation Yrotation Zrotation
									JOINT LeftHandMiddle2
									{
										OFFSET 3.410492 0.000000 0.000000
										CHANNELS 3 Xrotation Yrotation Zrotation
										JOINT LeftHandMiddle3
										{
											OFFSET 3.312172 0.000000 0.000000
											CHANNELS 3 Xrotation Yrotation Zrotation
											End Site
											{
												OFFSET -1.150200 3.080154 0.400270
											}
										}
									}
								}
								JOINT LeftHandRing1
								{
									OFFSET 11.514786 -0.013176 -3.003090
									CHANNELS 3 Xrotation Yrotation Zrotation
									JOINT LeftHandRing2
									{
										OFFSET 3.053307 0.000000 0.000000
										CHANNELS 3 Xrotation Yrotation Zrotation
										JOINT LeftHandRing3
										{
											OFFSET 3.295807 0.000000 0.000000
											CHANNELS 3 Xrotation Yrotation Zrotation
											End Site
											{
												OFFSET -1.281006 3.013344 0.375733
											}
										}
									}
								}
								JOINT LeftHandPinky1
								{
									OFFSET 10.518692 -0.960396 -5.730441
									CHANNELS 3 Xrotation Yrotation Zrotation
									JOINT LeftHandPinky2
									{
										OFFSET 2.861649 0.000000 0.000000
										CHANNELS 3 Xrotation Yrotation Zrotation
										JOINT LeftHandPinky3
										{
											OFFSET 2.863380 0.000000 0.000000
											CHANNELS 3 Xrotation Yrotation Zrotation
											End Site
											{
												OFFSET -0.843597 2.711159 0.369971
											}
										}
									}
								}
							}
							JOINT LSleeve
							{
								OFFSET 6.676277 -0.344902 -1.011730
								CHANNELS 3 Xrotation Yrotation Zrotation
								End Site
								{
									OFFSET 0.000000 14.885353 0.000000
								}
							}
						}
					}
				}
				JOINT RightShoulder
				{
					OFFSET -6.197800 13.665199 -4.064700
					CHANNELS 3 Xrotation Yrotation Zrotation
					JOINT RightArm
					{
						OFFSET -7.778100 -0.187103 -1.709300
						CHANNELS 3 Xrotation Yrotation Zrotation
						JOINT RightForeArm
						{
							OFFSET -22.049376 0.000000 0.000000
							CHANNELS 3 Xrotation Yrotation Zrotation
							JOINT RightHand
							{
								OFFSET -23.009392 0.000000 0.000000
								CHANNELS 3 Xrotation Yrotation Zrotation
								JOINT RightHandThumb1
								{
									OFFSET -3.507191 -2.063065 3.133727
									CHANNELS 3 Xrotation Yrotation Zrotation
									JOINT RightHandThumb2
									{
										OFFSET -3.101337 -1.790558 1.790558
										CHANNELS 3 Xrotation Yrotation Zrotation
										JOINT RightHandThumb3
										{
											OFFSET -3.058640 -1.765907 1.765906
											CHANNELS 3 Xrotation Yrotation Zrotation
											End Site
											{
												OFFSET 0.415260 3.926476 -0.049563
											}
										}
									}
								}
								JOINT RightHandIndex1
								{
									OFFSET -11.334419 -0.901459 3.706815
									CHANNELS 3 Xrotation Yrotation Zrotation
									JOINT RightHandIndex2
									{
										OFFSET -3.283112 0.000000 0.000000
										CHANNELS 3 Xrotation Yrotation Zrotation
										JOINT RightHandIndex3
										{
											OFFSET -3.323853 0.000000 0.000000
											CHANNELS 3 Xrotation Yrotation Zrotation
											End Site
											{
												OFFSET 1.135597 3.097809 0.402452
											}
										}
									}
								}
								JOINT RightHandMiddle1
								{
									OFFSET -11.335861 0.000000 0.000000
									CHANNELS 3 Xrotation Yrotation Zrotation
									JOINT RightHandMiddle2
									{
										OFFSET -3.410492 0.000000 0.000000
										CHANNELS 3 Xrotation Yrotation Zrotation
										JOINT RightHandMiddle3
										{
											OFFSET -3.312172 0.000000 0.000000
											CHANNELS 3 Xrotation Yrotation Zrotation
											End Site
											{
												OFFSET 1.150200 3.080154 0.400270
											}
										}
									}
								}
								JOINT RightHandRing1
								{
									OFFSET -11.514786 -0.013176 -3.003090
									CHANNELS 3 Xrotation Yrotation Zrotation
									JOINT RightHandRing2
									{
										OFFSET -3.053307 0.000000 0.000000
										CHANNELS 3 Xrotation Yrotation Zrotation
										JOINT RightHandRing3
										{
											OFFSET -3.295807 0.000000 0.000000
											CHANNELS 3 Xrotation Yrotation Zrotation
											End Site
											{
												OFFSET 1.281006 3.013344 0.375733
											}
										}
									}
								}
								JOINT RightHandPinky1
								{
									OFFSET -10.518692 -0.960396 -5.730441
									CHANNELS 3 Xrotation Yrotation Zrotation
									JOINT RightHandPinky2
									{
										OFFSET -2.861649 0.000000 0.000000
										CHANNELS 3 Xrotation Yrotation Zrotation
										JOINT RightHandPinky3
										{
											OFFSET -2.863380 0.000000 0.000000
											CHANNELS 3 Xrotation Yrotation Zrotation
											End Site
											{
												OFFSET 0.843597 2.711159 0.369971
											}
										}
									}
								}
							}
							JOINT RSleeve
							{
								OFFSET -6.676277 -0.344902 -1.011730
								CHANNELS 3 Xrotation Yrotation Zrotation
								End Site
								{
									OFFSET 0.000000 14.885353 0.000000
								}
							}
						}
					}
				}
				JOINT Backpack
				{
					OFFSET 0.000000 -2.471497 36.677502
					CHANNELS 3 Xrotation Yrotation Zrotation
					End Site
					{
						OFFSET 0.000000 20.427315 0.000000
					}
				}
				JOINT Hood
				{
					OFFSET 0.000000 18.754097 -10.431000
					CHANNELS 3 Xrotation Yrotation Zrotation
					JOINT Hood1
					{
						OFFSET 0.000000 -5.011002 -7.685901
						CHANNELS 3 Xrotation Yrotation Zrotation
						End Site
						{
							OFFSET 0.000000 9.175140 0.000000
						}
					}
				}
				JOINT LHoodieString
				{
					OFFSET 5.250500 16.397697 3.089900
					CHANNELS 3 Xrotation Yrotation Zrotation
					JOINT LHoodieString1
					{
						OFFSET 0.257700 -6.364304 3.694600
						CHANNELS 3 Xrotation Yrotation Zrotation
						JOINT LHoodieString2
						{
							OFFSET 0.000000 -9.643799 2.679100
							CHANNELS 3 Xrotation Yrotation Zrotation
							End Site
							{
								OFFSET 0.000000 10.009018 0.000000
							}
						}
					}
				}
				JOINT RHoodieString
				{
					OFFSET -5.250500 16.397697 3.089900
					CHANNELS 3 Xrotation Yrotation Zrotation
					JOINT RHoodieString1
					{
						OFFSET -0.257700 -6.364304 3.694600
						CHANNELS 3 Xrotation Yrotation Zrotation
						JOINT RHoodieString2
						{
							OFFSET 0.000000 -9.643799 2.679100
							CHANNELS 3 Xrotation Yrotation Zrotation
							End Site
							{
								OFFSET 0.000000 10.009018 0.000000
							}
						}
					}
				}
			}
			JOINT LBackpack_Strap
			{
				OFFSET 15.223200 -7.719803 -6.610900
				CHANNELS 3 Xrotation Yrotation Zrotation
				End Site
				{
					OFFSET 0.000000 16.040596 0.000000
				}
			}
			JOINT RBackpack_Strap
			{
				OFFSET -15.223000 -7.719803 -6.610900
				CHANNELS 3 Xrotation Yrotation Zrotation
				End Site
				{
					OFFSET 0.000000 16.040596 0.000000
				}
			}
		}
	}
	JOINT BoyFacialAnim_Joint
	{
		OFFSET 1.000000 -82.208099 -1.550900
		CHANNELS 3 Xrotation Yrotation Zrotation
		End Site
		{
			OFFSET 0.000000 30.012791 0.000000
		}
	}
}
MOTION
Frames: 5
Frame Time: 0.033333
-1.003870 77.141838 -8.760014 12.320837 4.520388 -2.225521 -0.000000 0.000000 -0.000000 -47.456469 7.302655 4.796815 37.697043 -0.584948 -0.471676 -3.487555 9.678892 2.013305 -0.000000 -0.000000 -0.000000 -0.000000 -0.000000 -0.000000 0.000000 0.000000 -0.000000 -40.676785 -1.187416 -5.933659 41.239897 1.683456 -1.220273 -12.907635 0.391671 5.024408 -0.000000 0.000000 -0.000000 -0.000000 0.000000 -0.000000 -0.000000 -0.000000 -0.000000 14.390833 1.241635 1.038441 4.209223 -0.964878 1.885756 4.206721 -0.954710 1.920534 -1.914153 0.910919 -0.367901 -31.425499 6.797797 1.515465 0.000000 0.000000 0.000000 0.000000 0.000000 0.000000 0.000000 0.000000 0.000000 -1.750726 -9.443741 -2.043169 -49.507376 -71.557105 -97.116185 -0.000007 -28.809171 -0.000021 14.953173 -29.278525 7.908276 3.280808 9.354114 9.515107 21.300244 49.589164 -4.461464 0.000000 -0.000001 0.000001 2.006142 5.046027 -33.355126 0.538750 2.455916 -24.742096 -0.000002 0.000000 0.000005 1.843975 6.876689 -31.980394 0.631037 2.646839 -26.815400 0.000001 -0.000000 -0.000003 1.504551 6.294036 -33.435094 0.819024 2.989442 -30.637753 -0.000003 -0.000001 -0.000002 2.734540 8.353677 -33.601597 0.392476 2.110071 -21.071649 -0.000000 0.000002 -0.000002 -0.000001 -0.000003 0.000001 -0.868381 18.122915 1.859412 -18.939983 54.687815 56.236653 0.000020 62.803890 -0.000026 8.344082 12.778061 0.307124 -11.108505 1.813138 -0.730188 20.933478 -43.949897 -0.979226 0.000000 0.000002 0.000003 0.168894 -3.435279 16.485136 0.260984 -1.538571 19.251566 -0.000001 0.000001 0.000002 0.204319 -3.506373 18.378209 0.776328 -2.576522 33.531161 -0.000001 -0.000003 0.000001 1.853194 -8.476681 18.139041 0.592242 -2.274737 29.184077 -0.000000 0.000000 -0.000001 0.682622 -5.013904 26.076727 0.051570 -0.691857 8.524822 0.000002 -0.000001 -0.000002 0.000000 -0.000004 -0.000003 0.000002 -0.000000 0.000000 0.000002 -0.000000 0.000000 0.000002 -0.000000 0.000000 0.000002 -0.000000 0.000000 0.000002 -0.000000 0.000000 0.000000 0.000000 0.000000 0.000002 -0.000000 0.000000 0.000002 -0.000000 0.000000 0.000000 0.000000 0.000000 -0.000000 -0.000000 0.000000 -0.000000 -0.000000 0.000000 -0.000000 0.000000 -0.000000 
-1.489254 78.251213 -7.823606 10.320395 4.496382 -2.617145 -0.000000 0.000001 -0.000000 -42.661481 7.636522 5.517525 34.068772 -0.997740 0.025196 -2.626606 9.528300 1.205537 -0.000000 0.000000 0.000000 -0.000000 0.000000 0.000000 -0.000000 -0.000001 0.000000 -35.191399 -2.231655 -4.949801 36.406793 1.388366 -1.242235 -11.596328 0.895765 5.011980 0.000000 -0.000000 -0.000000 0.000000 -0.000000 -0.000000 0.000002 0.000000 -0.000000 12.703821 1.495439 1.044508 4.097781 -0.958269 2.033948 4.096456 -0.951517 2.063214 -1.682770 0.812759 -0.195148 -28.418626 6.424837 1.603965 -0.000000 0.000001 -0.000000 -0.000000 0.000001 -0.000000 -0.000000 0.000001 -0.000000 -1.762418 -8.854271 -2.389517 -41.034841 -69.250960 -91.618785 0.000002 -26.140823 0.000002 14.712938 -26.732776 4.941509 3.279780 9.441464 9.553910 20.373631 48.733051 -3.492114 0.000000 -0.000000 0.000000 1.898009 4.980504 -32.466546 0.541388 2.461695 -24.804090 -0.000003 -0.000000 0.000003 1.782369 6.806164 -31.461193 0.642502 2.669360 -27.062205 0.000001 -0.000002 -0.000002 1.450877 6.223845 -33.008887 0.842783 3.029097 -31.089822 0.000000 0.000003 0.000005 2.582594 8.150808 -33.349823 0.406430 2.145929 -21.447844 0.000001 0.000000 -0.000000 -0.000001 -0.000000 0.000001 -1.009093 15.932046 2.236773 -13.771457 54.272970 56.034879 -0.000024 58.594212 0.000012 8.606230 11.149641 1.188041 -10.830609 1.531745 -0.657375 20.442695 -43.294827 -1.480379 0.000001 0.000001 0.000002 0.133437 -3.303557 15.488554 0.260243 -1.536414 19.223692 -0.000001 0.000001 0.000002 0.201310 -3.481135 17.131562 0.768584 -2.564753 33.357742 -0.000002 0.000003 -0.000002 1.818203 -8.491558 17.704207 0.598447 -2.285795 29.339993 -0.000001 0.000001 0.000002 0.686547 -5.016183 25.436389 0.062553 -0.761628 9.391922 0.000002 0.000002 -0.000001 0.000000 -0.000000 -0.000001 0.000002 0.000000 -0.000000 0.000002 0.000000 -0.000000 0.000002 0.000000 -0.000000 0.000002 0.000000 -0.000000 0.000002 0.000000 -0.000000 -0.000000 0.000000 -0.000000 0.000002 0.000000 -0.000000 0.000002 0.000000 -0.000000 -0.000000 0.000000 -0.000000 0.000001 0.000000 -0.000000 0.000001 0.000000 -0.000000 -0.000000 0.000001 -0.000000 
-1.996778 79.195862 -6.933579 8.369285 4.433113 -2.938308 0.000000 0.000000 -0.000000 -38.114344 7.824940 6.040848 30.687972 -1.036761 0.726917 -1.758070 9.360939 0.174218 -0.000000 -0.000000 -0.000000 -0.000000 -0.000000 -0.000000 -0.000000 0.000000 -0.000000 -29.881709 -3.018963 -3.838752 31.682611 1.266101 -1.431781 -10.241021 1.183210 5.140522 -0.000000 -0.000000 0.000000 -0.000000 -0.000000 0.000000 0.000000 -0.000000 -0.000000 11.128205 1.807868 1.015339 3.988638 -0.936082 2.123781 3.987926 -0.935456 2.147852 -1.376482 0.640991 -0.044881 -25.437301 5.676573 1.691411 -0.000000 0.000000 -0.000000 -0.000000 0.000000 -0.000000 -0.000000 0.000000 -0.000000 -1.736792 -8.587558 -2.333959 -34.398141 -65.514819 -87.539447 -0.000018 -23.325175 -0.000013 16.201542 -23.867852 2.394743 3.204437 9.411590 9.624141 19.243479 47.599640 -2.386523 0.000001 0.000001 -0.000003 1.766385 4.874060 -31.256114 0.543961 2.467199 -24.863716 0.000001 -0.000000 -0.000002 1.683244 6.685399 -30.668902 0.647877 2.679810 -27.177434 0.000004 -0.000001 -0.000004 1.372319 6.118576 -32.348459 0.861897 3.060523 -31.449538 0.000001 0.000000 0.000001 2.373688 7.876087 -32.880059 0.419941 2.179892 -21.805051 -0.000001 -0.000001 0.000001 0.000002 0.000001 0.000000 -1.064995 14.410226 2.493791 -8.781403 52.850211 55.618937 -0.000011 54.588651 0.000022 8.603662 10.582219 2.040236 -10.370038 1.095605 -0.899454 20.010547 -42.706390 -1.946393 -0.000000 -0.000001 0.000002 0.118163 -3.233319 14.579718 0.261202 -1.539252 19.260433 -0.000001 -0.000002 0.000001 0.211170 -3.505717 15.966681 0.762480 -2.555486 33.221565 -0.000000 -0.000003 0.000001 1.781703 -8.534725 17.160516 0.609896 -2.305986 29.625163 -0.000001 0.000000 0.000002 0.702194 -5.046828 24.586350 0.073575 -0.825514 10.187943 -0.000000 -0.000000 0.000000 0.000001 -0.000001 0.000001 -0.000001 -0.000000 0.000000 -0.000001 -0.000000 0.000000 -0.000001 -0.000000 0.000000 -0.000001 -0.000000 0.000000 -0.000001 -0.000000 -0.000000 -0.000001 -0.000000 -0.000000 -0.000001 -0.000000 0.000000 -0.000001 -0.000000 -0.000000 -0.000001 -0.000000 -0.000000 -0.000000 0.000000 -0.000000 -0.000000 0.000000 -0.000000 0.000000 0.000000 -0.000000 
-2.493083 79.949005 -6.117579 6.645881 4.390626 -3.141025 -0.000001 0.000000 0.000000 -34.075595 7.964191 6.352299 27.678257 -0.879560 1.511078 -0.951911 9.172465 -0.901390 -0.000000 -0.000002 -0.000000 -0.000000 -0.000002 -0.000000 -0.000000 -0.000001 0.000000 -25.106577 -3.639069 -2.717753 27.374548 1.496727 -1.882884 -8.970796 1.094078 5.378139 -0.000000 -0.000000 -0.000000 -0.000000 -0.000000 -0.000000 0.000001 -0.000000 -0.000000 9.631597 2.120202 1.019197 3.815021 -0.914209 2.182266 3.814687 -0.920988 2.202286 -1.035515 0.448158 -0.056529 -22.673749 4.727375 1.682062 0.000000 0.000001 0.000000 0.000000 0.000001 0.000000 0.000000 0.000001 0.000000 -1.711786 -8.172198 -2.066678 -30.008238 -60.113943 -85.324793 -0.000002 -20.151196 0.000003 18.054258 -22.766643 0.622203 3.166797 9.427817 9.580331 17.986026 46.241620 -1.210793 0.000001 -0.000000 -0.000002 1.571347 4.662772 -29.883560 0.540791 2.460348 -24.789664 0.000001 0.000001 -0.000005 1.574474 6.555920 -29.600735 0.647610 2.679295 -27.171713 0.000001 -0.000001 -0.000002 1.305116 6.033108 -31.438063 0.876837 3.084814 -31.728544 0.000002 -0.000003 0.000003 2.134687 7.563601 -32.168340 0.431523 2.208684 -22.107878 -0.000001 -0.000004 0.000001 0.000001 0.000001 0.000000 -1.096696 13.237100 2.873267 -5.614497 50.318956 56.715702 -0.000014 49.720642 -0.000009 8.342849 9.761324 4.500261 -9.785758 0.537973 -1.354305 19.837169 -42.474218 -2.284827 0.000000 0.000000 -0.000002 0.170346 -3.429735 14.248363 0.262635 -1.543364 19.313874 -0.000001 -0.000002 0.000003 0.234053 -3.588032 15.222948 0.759419 -2.550803 33.152608 0.000004 0.000005 -0.000001 1.749256 -8.469170 17.032723 0.625379 -2.333003 30.007739 0.000003 -0.000003 -0.000000 0.677883 -4.995007 24.162052 0.088137 -0.902692 11.152296 -0.000000 0.000001 0.000001 -0.000000 -0.000003 -0.000003 0.000000 0.000000 -0.000000 0.000000 0.000000 -0.000000 0.000000 0.000000 -0.000000 0.000000 0.000000 -0.000000 0.000000 0.000000 -0.000000 0.000000 0.000000 -0.000000 0.000000 0.000000 -0.000000 0.000000 0.000000 -0.000000 0.000000 0.000000 -0.000000 -0.000001 -0.000000 -0.000000 -0.000001 -0.000000 -0.000000 -0.000001 0.000000 0.000000 
-2.937852 80.523476 -5.406581 5.250683 4.339439 -3.217381 -0.000000 0.000000 -0.000000 -30.698015 8.211553 6.589084 25.082481 -0.767028 2.113073 -0.250995 8.977722 -1.785677 0.000000 -0.000002 -0.000000 0.000000 -0.000002 -0.000000 -0.000000 -0.000000 -0.000000 -21.163911 -4.062068 -1.820615 23.800465 1.588821 -2.254279 -7.956052 1.174103 5.457415 -0.000000 0.000000 0.000000 -0.000000 0.000000 0.000000 -0.000000 0.000000 0.000000 8.189210 2.339444 0.986651 3.601173 -0.915918 2.241375 3.601679 -0.928096 2.258195 -0.693159 0.335714 -0.171864 -20.457752 4.054428 1.807686 -0.000000 -0.000000 0.000000 -0.000000 -0.000000 0.000000 -0.000000 -0.000000 0.000000 -1.731077 -7.114058 -1.667846 -26.926134 -54.045784 -84.170600 -0.000007 -17.337629 -0.000022 17.895352 -21.025347 0.792004 3.046336 9.283259 9.383300 16.974362 45.124266 -0.235268 -0.000000 0.000003 -0.000001 1.557594 4.736423 -29.864760 0.531226 2.439543 -24.565846 -0.000001 0.000001 0.000002 1.354305 6.198121 -28.921176 0.642820 2.669957 -27.068892 0.000000 -0.000002 -0.000002 1.256221 5.981952 -30.245963 0.889967 3.105899 -31.971569 -0.000001 -0.000001 -0.000006 2.021012 7.441864 -31.399445 0.443681 2.238317 -22.420919 0.000001 -0.000002 -0.000002 0.000003 -0.000002 0.000001 -1.093138 12.425104 3.285062 -3.060537 46.925005 58.007560 -0.000035 45.137992 0.000028 8.770858 8.768021 7.206806 -9.538937 0.336224 -1.359728 19.992124 -42.703951 -2.470143 0.000000 0.000001 -0.000003 0.211456 -3.582188 14.388232 0.265732 -1.552169 19.428463 0.000001 0.000003 0.000002 0.055166 -2.906381 14.600981 0.765487 -2.560137 33.289304 0.000003 0.000001 0.000003 1.742968 -8.791257 15.941165 0.608422 -2.303433 29.589049 -0.000001 -0.000003 0.000002 0.447049 -4.529992 24.595399 0.102026 -0.970568 12.003120 0.000001 0.000002 0.000001 -0.000002 0.000002 -0.000001 0.000002 0.000000 -0.000000 0.000002 0.000000 -0.000000 0.000002 0.000000 -0.000000 0.000002 0.000000 -0.000000 0.000002 0.000000 -0.000000 0.000001 -0.000000 0.000000 0.000002 0.000000 -0.000000 0.000002 0.000000 -0.000000 0.000001 -0.000000 0.000000 0.000001 0.000000 0.000000 0.000001 0.000000 0.000000 -0.000000 0.000000 -0.000000 
